<svg width="137" height="28" viewBox="0 0 137 28" fill="none" xmlns="http://www.w3.org/2000/svg">
<path d="M18.16 0.505015V22H15.25V12.22H3.655V22H0.745003V0.505015H3.655V10.09H15.25V0.505015H18.16Z" fill="#F3F3F3"/>
<path d="M30.8207 15.16C29.5907 15.2 28.5407 15.3 27.6707 15.46C26.8107 15.61 26.1057 15.81 25.5557 16.06C25.0157 16.31 24.6207 16.605 24.3707 16.945C24.1307 17.285 24.0107 17.665 24.0107 18.085C24.0107 18.485 24.0757 18.83 24.2057 19.12C24.3357 19.41 24.5107 19.65 24.7307 19.84C24.9607 20.02 25.2257 20.155 25.5257 20.245C25.8357 20.325 26.1657 20.365 26.5157 20.365C26.9857 20.365 27.4157 20.32 27.8057 20.23C28.1957 20.13 28.5607 19.99 28.9007 19.81C29.2507 19.63 29.5807 19.415 29.8907 19.165C30.2107 18.915 30.5207 18.63 30.8207 18.31V15.16ZM22.1957 8.95002C23.0357 8.14002 23.9407 7.53502 24.9107 7.13502C25.8807 6.73502 26.9557 6.53502 28.1357 6.53502C28.9857 6.53502 29.7407 6.67502 30.4007 6.95502C31.0607 7.23502 31.6157 7.62502 32.0657 8.12502C32.5157 8.62502 32.8557 9.23002 33.0857 9.94002C33.3157 10.65 33.4307 11.43 33.4307 12.28V22H32.2457C31.9857 22 31.7857 21.96 31.6457 21.88C31.5057 21.79 31.3957 21.62 31.3157 21.37L31.0157 19.93C30.6157 20.3 30.2257 20.63 29.8457 20.92C29.4657 21.2 29.0657 21.44 28.6457 21.64C28.2257 21.83 27.7757 21.975 27.2957 22.075C26.8257 22.185 26.3007 22.24 25.7207 22.24C25.1307 22.24 24.5757 22.16 24.0557 22C23.5357 21.83 23.0807 21.58 22.6907 21.25C22.3107 20.92 22.0057 20.505 21.7757 20.005C21.5557 19.495 21.4457 18.895 21.4457 18.205C21.4457 17.605 21.6107 17.03 21.9407 16.48C22.2707 15.92 22.8057 15.425 23.5457 14.995C24.2857 14.565 25.2507 14.215 26.4407 13.945C27.6307 13.665 29.0907 13.505 30.8207 13.465V12.28C30.8207 11.1 30.5657 10.21 30.0557 9.61002C29.5457 9.00002 28.8007 8.69502 27.8207 8.69502C27.1607 8.69502 26.6057 8.78002 26.1557 8.95002C25.7157 9.11002 25.3307 9.29502 25.0007 9.50502C24.6807 9.70502 24.4007 9.89002 24.1607 10.06C23.9307 10.22 23.7007 10.3 23.4707 10.3C23.2907 10.3 23.1357 10.255 23.0057 10.165C22.8757 10.065 22.7657 9.94502 22.6757 9.80502L22.1957 8.95002Z" fill="#F3F3F3"/>
<path d="M40.1828 18.34C40.6728 19 41.2078 19.465 41.7878 19.735C42.3678 20.005 43.0178 20.14 43.7378 20.14C45.1578 20.14 46.2478 19.635 47.0078 18.625C47.7678 17.615 48.1478 16.175 48.1478 14.305C48.1478 13.315 48.0578 12.465 47.8778 11.755C47.7078 11.045 47.4578 10.465 47.1278 10.015C46.7978 9.55502 46.3928 9.22002 45.9128 9.01002C45.4328 8.80002 44.8878 8.69502 44.2778 8.69502C43.4078 8.69502 42.6428 8.89502 41.9828 9.29502C41.3328 9.69502 40.7328 10.26 40.1828 10.99V18.34ZM40.0478 9.16002C40.6878 8.37002 41.4278 7.73502 42.2678 7.25502C43.1078 6.77502 44.0678 6.53502 45.1478 6.53502C46.0278 6.53502 46.8228 6.70502 47.5328 7.04502C48.2428 7.37502 48.8478 7.87002 49.3478 8.53002C49.8478 9.18002 50.2328 9.99002 50.5028 10.96C50.7728 11.93 50.9078 13.045 50.9078 14.305C50.9078 15.425 50.7578 16.47 50.4578 17.44C50.1578 18.4 49.7228 19.235 49.1528 19.945C48.5928 20.645 47.9028 21.2 47.0828 21.61C46.2728 22.01 45.3578 22.21 44.3378 22.21C43.4078 22.21 42.6078 22.055 41.9378 21.745C41.2778 21.425 40.6928 20.985 40.1828 20.425V27.145H37.4978V6.80502H39.1028C39.4828 6.80502 39.7178 6.99002 39.8078 7.36001L40.0478 9.16002Z" fill="#F3F3F3"/>
<path d="M56.9992 18.34C57.4892 19 58.0242 19.465 58.6042 19.735C59.1842 20.005 59.8342 20.14 60.5542 20.14C61.9742 20.14 63.0642 19.635 63.8242 18.625C64.5842 17.615 64.9642 16.175 64.9642 14.305C64.9642 13.315 64.8742 12.465 64.6942 11.755C64.5242 11.045 64.2742 10.465 63.9442 10.015C63.6142 9.55502 63.2092 9.22002 62.7292 9.01002C62.2492 8.80002 61.7042 8.69502 61.0942 8.69502C60.2242 8.69502 59.4592 8.89502 58.7992 9.29502C58.1492 9.69502 57.5492 10.26 56.9992 10.99V18.34ZM56.8642 9.16002C57.5042 8.37002 58.2442 7.73502 59.0842 7.25502C59.9242 6.77502 60.8842 6.53502 61.9642 6.53502C62.8442 6.53502 63.6392 6.70502 64.3492 7.04502C65.0592 7.37502 65.6642 7.87002 66.1642 8.53002C66.6642 9.18002 67.0492 9.99002 67.3192 10.96C67.5892 11.93 67.7242 13.045 67.7242 14.305C67.7242 15.425 67.5742 16.47 67.2742 17.44C66.9742 18.4 66.5392 19.235 65.9692 19.945C65.4092 20.645 64.7192 21.2 63.8992 21.61C63.0892 22.01 62.1742 22.21 61.1542 22.21C60.2242 22.21 59.4242 22.055 58.7542 21.745C58.0942 21.425 57.5092 20.985 56.9992 20.425V27.145H54.3142V6.80502H55.9192C56.2992 6.80502 56.5342 6.99002 56.6242 7.36001L56.8642 9.16002Z" fill="#F3F3F3"/>
<path d="M83.8598 6.80502L75.3848 26.485C75.2948 26.685 75.1798 26.845 75.0398 26.965C74.9098 27.085 74.7048 27.145 74.4248 27.145H72.4448L75.2198 21.115L68.9498 6.80502H71.2598C71.4898 6.80502 71.6698 6.86502 71.7998 6.98502C71.9398 7.09502 72.0348 7.22001 72.0848 7.36001L76.1498 16.93C76.3098 17.35 76.4448 17.79 76.5548 18.25C76.6948 17.78 76.8448 17.335 77.0048 16.915L80.9498 7.36001C81.0098 7.20002 81.1098 7.07002 81.2498 6.97001C81.3998 6.86002 81.5648 6.80502 81.7448 6.80502H83.8598Z" fill="#F3F3F3"/>
<path d="M96.7019 22H93.7919V0.505015H96.7019V22Z" fill="#F3F3F3"/>
<path d="M117.29 17.56C117.45 17.56 117.59 17.625 117.71 17.755L118.865 19C117.985 20.02 116.915 20.815 115.655 21.385C114.405 21.955 112.89 22.24 111.11 22.24C109.57 22.24 108.17 21.975 106.91 21.445C105.65 20.905 104.575 20.155 103.685 19.195C102.795 18.225 102.105 17.065 101.615 15.715C101.125 14.365 100.88 12.88 100.88 11.26C100.88 9.64002 101.135 8.15502 101.645 6.80502C102.155 5.45502 102.87 4.29502 103.79 3.32502C104.72 2.35502 105.83 1.60502 107.12 1.07501C108.41 0.535015 109.835 0.265015 111.395 0.265015C112.925 0.265015 114.275 0.510015 115.445 1.00002C116.615 1.49002 117.645 2.15502 118.535 2.99502L117.575 4.33002C117.515 4.43002 117.435 4.51502 117.335 4.58502C117.245 4.64502 117.12 4.67502 116.96 4.67502C116.78 4.67502 116.56 4.58002 116.3 4.39002C116.04 4.19002 115.7 3.97002 115.28 3.73002C114.86 3.49002 114.335 3.27502 113.705 3.08502C113.075 2.88502 112.3 2.78502 111.38 2.78502C110.27 2.78502 109.255 2.98002 108.335 3.37001C107.415 3.75001 106.62 4.30502 105.95 5.03502C105.29 5.76502 104.775 6.65501 104.405 7.70502C104.035 8.75502 103.85 9.94002 103.85 11.26C103.85 12.6 104.04 13.795 104.42 14.845C104.81 15.895 105.335 16.785 105.995 17.515C106.665 18.235 107.45 18.785 108.35 19.165C109.26 19.545 110.24 19.735 111.29 19.735C111.93 19.735 112.505 19.7 113.015 19.63C113.535 19.55 114.01 19.43 114.44 19.27C114.88 19.11 115.285 18.91 115.655 18.67C116.035 18.42 116.41 18.125 116.78 17.785C116.95 17.635 117.12 17.56 117.29 17.56Z" fill="#F3F3F3"/>
<path d="M136.774 2.95002H129.814V22H126.919V2.95002H119.944V0.505015H136.774V2.95002Z" fill="#F3F3F3"/>
</svg>
